<svg fill="none" height="136" viewBox="0 0 115 136" width="115" xmlns="http://www.w3.org/2000/svg" xmlns:xlink="http://www.w3.org/1999/xlink"><clipPath id="a"><path d="m.659912.447266h114.203v135.206h-114.203z"/></clipPath><g clip-path="url(#a)" fill="#000"><path d="m7.9145 102.691c1.03635.438 2.1245.78 3.1773 1.111.3281.104.6563.208.9845.314 6.0765 1.893 11.7529 4.889 16.7452 8.837 8.115 6.503 16.3264 12.621 23.2875 17.748 1.9435 1.414 4.143 2.435 6.4765 3.01 4.393 1.101 8.902 1.674 13.4308 1.706 9.6934.049 19.1211-3.165 26.7674-9.123 10.6843-8.073 16.0873-18.372 16.0543-30.6219.001-4.8392-.485-9.6659-1.45-14.408-1.815-9.2878-4.736-18.3256-8.699-26.9196-2.106-4.4552-4.555-7.8688-7.4864-10.4358-1.2372-1.118-2.6982-1.9596-4.2853-2.4689-1.5876-.5093-3.2659-.6745-4.9225-.4846-1.6796.2102-3.2948.7754-4.7388 1.658-1.4439.8828-2.6837 2.0626-3.6367 3.4614-.2527.357-.4969.7219-.7765 1.1381l-.2494.3695c-3.6131-2.9247-7.2893-4.045-11.2234-3.43-3.8026.5959-5.4784 1.8378-9.2241 6.9178-7.8557-4.0798-11.8422-1.5594-15.5394 3.9577-.6038-1.1426-1.1886-2.2644-1.7642-3.3683-1.4439-2.7731-2.8119-5.3925-4.2848-7.9843-3.3854-5.9596-6.7156-11.7748-10.2296-17.4009-2.0245-3.203-4.8555-5.8173-8.2094-7.5807-3.6991-1.965-6.9626-1.3009-9.7002 1.9742-1.04102 1.191-1.76786 2.6232-2.11449 4.1665s-.30199 3.1487.12979 4.6705c.5743 2.1613 1.35396 4.299 2.10744 6.3665.38724 1.0593.77323 2.1186 1.13421 3.1852 4.25435 12.557 10.18365 24.6028 15.91815 36.2515l.9486 1.9256c.483.9846.926 1.9691 1.4386 3.1091.1706.3794.3472.7719.5329 1.1814l-.5204-.0925c-.6643-.1162-1.2131-.212-1.7585-.3242-6.4078-1.3048-13.0695-.3597-18.86106 2.6772-4.40925 2.2125-6.442716 5.2356-6.21628 9.2412.2586 4.6305 2.53308 7.8823 6.75724 9.6653zm24.1708-10.6984c1.608 1.7557 3.0742 2.2237 4.4866 1.4328 1.4728-.8263 2.0439-2.2604 1.6521-4.1474-.2521-1.1164-.6327-2.1994-1.1342-3.2279-1.7227-3.6846-3.4589-7.3634-5.2087-11.0369-3.5337-7.4534-7.188-15.1614-10.6043-22.8176-2.4186-5.4201-4.5518-11.0809-6.6146-16.5561-.6319-1.6772-1.2662-3.3525-1.9033-5.0262-.5825-1.2789-.8613-2.6753-.814-4.0799.1652-1.3092.8025-2.5132 1.7924-3.386.3321-.2526 1.9199.168 2.8493.8696 1.6134 1.1503 3.0307 2.5531 4.1974 4.1546 2.2977 3.3052 4.3976 6.7437 6.2883 10.2974 3.2017 6.1243 6.3664 12.4001 9.4269 18.4693 1.4838 2.9425 2.9713 5.8832 4.463 8.8218l.1051.2087c.3463.7771.8036 1.4998 1.3578 2.1456.3539.4529.8336.7915 1.3787.9733.5452.1825 1.132.1996 1.687.0506.555-.1497 1.0537-.4595 1.4339-.8907.38-.4312.6247-.9641.7034-1.5338.109-.598.1341-1.208.0746-1.8128-.0315-.4111-.0331-.8239-.0051-1.2353.0565-.5972.0991-1.201.1411-1.8042.0606-1.7152.2975-3.4198.7069-5.0866.0924-.6251.3635-1.2101.7807-1.6847.4172-.4745.9625-.8182 1.5706-.9899.6081-.1715 1.2529-.1637 1.8566.0227s1.1408.5436 1.5463 1.0281c1.0936 1.1347 2.0158 2.4228 2.7375 3.8238.2015.3452.4016.6899.6057 1.0272.3122.5699.5608 1.1726.7407 1.797.1069.3282.2143.6512.3377.9682.6655 1.7065 1.9401 2.3877 3.5855 1.9236 1.4827-.4187 2.1823-1.5751 1.969-3.2494-.0859-.6774-.1967-1.3521-.3082-2.0262-.1077-.6563-.2154-1.3061-.2994-1.9625-.1006-.7612-.138-1.5296-.1122-2.2971l.0132-.3531c.0787-2.1331.1535-4.1481 2.3844-5.0749 2.8006-1.165 5.4568-.7448 7.4822 1.1815.9917 1.0437 1.8424 2.2132 2.5302 3.4785.2218.3676.4424.7339.6688 1.0923.2219.3777.4128.7728.571 1.1813.2291.6693.5888 1.2863 1.0587 1.8154.7942.7791 2.1836 1.4637 3.1412 1.2595.9576-.2041 1.9382-1.4045 2.3267-2.4454.2639-.8273.4122-1.6873.4398-2.5552.0387-.4929.0781-1.0022.1628-1.4819.1535-1.087.4213-2.1548.7981-3.1859.6996-1.7347 1.8377-2.8689 3.2121-3.1938.6786-.1243 1.3776-.0817 2.0359.1242.659.2058 1.2576.5686 1.7446 1.0572 2.1987 1.9323 4.9147 4.534 6.3999 7.5256 5.8833 11.8416 9.2873 23.9274 10.1173 35.9233.041.5946.029 1.2103.018 1.8056-.006.2881-.011.5756-.011.8631v.0138c.769 18.9492-19.5644 32.3362-33.9007 33.2272-10.961.684-19.9857-2.328-27.5788-9.201-5.3702-4.861-11.1787-9.434-16.1525-13.265-5.0105-3.898-10.7129-6.8127-16.8067-8.5914l-.1574-.0453c-1.5559-.3938-3.0698-.9392-4.51969-1.6277-1.32515-.6898-2.10744-1.5923-2.20261-2.5413-.09123-.9137.43194-1.8588 1.51424-2.7324 1.50646-1.2398 3.25546-2.1508 5.13496-2.6745 1.9268-.5199 3.9116-.7936 5.9071-.8152 2.9881-.0479 5.923.7955 8.4295 2.4232 1.1831.8572 2.2514 1.8627 3.1791 2.9916.195.2212.3912.4404.5888.6563z"/><path d="m45.6002 15.1755c10.772.3386 21.1241 4.2552 29.4229 11.1315.3203.2586.6379.5251.9549.7876.8828.7325 1.7951 1.4899 2.7632 2.1449.7148.542 1.5746.8596 2.4698.9123.3669-.0031.7299-.082 1.0653-.2316.3347-.1497.6359-.3669.8834-.638 1.7721-1.7984.254-3.7352-.2448-4.3719-.6944-.9089-1.4801-1.7445-2.3438-2.4941-7.7783-6.6034-16.3724-10.7711-25.5421-12.387-2.2092-.38923-4.4153-.58023-6.7518-.78238-.8533-.07416-1.7124-.14833-2.5847-.23431.3024-.32331.6004-.64039.8935-.9511 1.0127-1.07637 1.9688-2.09233 2.8818-3.15035 1.0586-1.22604 1.1526-2.5.256-3.49304-1.3494-1.4997342-2.834-.474545-3.7214.13716-3.6551 2.52362-7.232 4.9882-10.794 7.37923-2.0294 1.36389-3.1031 2.92529-3.1038 4.51629 0 1.4682.9285 2.8708 2.6907 4.0555 2.9464 1.8801 6.0237 3.5471 9.208 4.9881l1.4437.697c1.1009.4155 2.2895.5443 3.4538.3742.3725.0016.7395-.09 1.0676-.2666.3279-.1765.6063-.4324.8101-.7442.1542-.323.2251-.6796.2057-1.037-.0193-.3575-.1283-.7043-.3166-1.0088-.604-1.1169-1.4225-2.1037-2.4087-2.9036-.8424-.6541-1.7351-1.2408-2.6699-1.7544-.2822-.1661-.5788-.3407-.8906-.5251l.0741-.0157c.2698-.0761.5476-.1213.8277-.1346z"/></g></svg>